<svg width="46" height="46" viewBox="0 0 46 46" fill="none" xmlns="http://www.w3.org/2000/svg">
<path d="M35.8393 5.91071H9.58929C7.52679 5.91071 5.83929 7.59821 5.83929 9.66071V35.9107C5.83929 37.9732 7.52679 39.6607 9.58929 39.6607H35.8393C37.9018 39.6607 39.5893 37.9732 39.5893 35.9107V9.66071C39.5893 7.59821 37.9018 5.91071 35.8393 5.91071ZM35.8393 35.9107H9.58929V9.66071H35.8393V35.9107Z" fill="white"/>
<path d="M17.0893 22.7857H13.3393V32.1607H17.0893V22.7857Z" fill="white"/>
<path d="M32.0893 13.4107H28.3393V32.1607H32.0893V13.4107Z" fill="white"/>
<path d="M24.5893 26.5357H20.8393V32.1607H24.5893V26.5357Z" fill="white"/>
<path d="M24.5893 19.0357H20.8393V22.7857H24.5893V19.0357Z" fill="white"/>
</svg>
