<svg width="181" height="182" viewBox="0 0 181 182" fill="none" xmlns="http://www.w3.org/2000/svg">
<circle cx="90.619" cy="90.846" r="90.3405" fill="#26A3EA"/>
<circle cx="89.9644" cy="90.1914" r="81.8302" fill="#3D3939"/>
<path d="M21.227 142.062C21.227 142.062 40.6881 132.599 53.9591 132.897C66.2486 133.173 71.7907 141.549 84.0726 142.062C98.3219 142.658 105.251 131.3 119.423 132.897C133.057 134.434 150.846 148.609 150.846 148.609L127.279 172.176L84.0726 180.031L53.9591 172.176L21.227 142.062Z" fill="#26A3EA"/>
<path d="M80.5156 162L79.7637 159.373H76.1895L75.3887 162H72.0684L76.1895 148.67H80.5156L84.6855 162H80.5156ZM76.8828 156.463H79.0508L77.9668 152.596L76.8828 156.463ZM89.6758 165.135H85.7793V152.068H89.3633V153.475C89.8646 152.4 90.7988 151.863 92.166 151.863C93.3509 151.863 94.2786 152.326 94.9492 153.25C95.6198 154.168 95.9551 155.421 95.9551 157.01C95.9551 158.598 95.61 159.861 94.9199 160.799C94.2363 161.736 93.3314 162.205 92.2051 162.205C91.0983 162.205 90.2552 161.782 89.6758 160.936V165.135ZM89.6758 158.367C89.6758 158.81 89.7767 159.155 89.9785 159.402C90.1803 159.643 90.431 159.764 90.7305 159.764C91.1992 159.764 91.5215 159.549 91.6973 159.119C91.873 158.683 91.9609 158.016 91.9609 157.117C91.9609 156.082 91.86 155.356 91.6582 154.939C91.4564 154.516 91.1536 154.305 90.75 154.305C90.5091 154.305 90.2682 154.399 90.0273 154.588C89.793 154.777 89.6758 155.086 89.6758 155.516V158.367ZM101.414 165.135H97.5176V152.068H101.102V153.475C101.603 152.4 102.537 151.863 103.904 151.863C105.089 151.863 106.017 152.326 106.688 153.25C107.358 154.168 107.693 155.421 107.693 157.01C107.693 158.598 107.348 159.861 106.658 160.799C105.975 161.736 105.07 162.205 103.943 162.205C102.837 162.205 101.993 161.782 101.414 160.936V165.135ZM101.414 158.367C101.414 158.81 101.515 159.155 101.717 159.402C101.919 159.643 102.169 159.764 102.469 159.764C102.938 159.764 103.26 159.549 103.436 159.119C103.611 158.683 103.699 158.016 103.699 157.117C103.699 156.082 103.598 155.356 103.396 154.939C103.195 154.516 102.892 154.305 102.488 154.305C102.247 154.305 102.007 154.399 101.766 154.588C101.531 154.777 101.414 155.086 101.414 155.516V158.367Z" fill="white"/>
<path d="M78.4336 58.0039L74.1914 74H70.0664L67.8281 65.1758L65.7188 74H61.418L57.1641 58.0039H61.7812L64.0195 67.2266L66.1992 58.0039H70.0664L72.4336 67.2266L74.6719 58.0039H78.4336ZM91.1484 74H86.6953C86.5859 73.4922 86.5312 72.9375 86.5312 72.3359C85.6875 73.6094 84.4102 74.2461 82.6992 74.2461C81.293 74.2461 80.2383 73.8867 79.5352 73.168C78.8398 72.4492 78.4922 71.625 78.4922 70.6953C78.4922 69.4375 79.0625 68.4219 80.2031 67.6484C81.3516 66.8672 83.3828 66.3984 86.2969 66.2422V65.9727C86.2969 65.4492 86.1758 65.1016 85.9336 64.9297C85.6992 64.7578 85.3516 64.6719 84.8906 64.6719C83.8125 64.6719 83.2109 65.1055 83.0859 65.9727L78.8203 65.5742C79.4297 63.082 81.5039 61.8359 85.043 61.8359C86.0039 61.8359 86.8867 61.9336 87.6914 62.1289C88.4961 62.3164 89.1328 62.6133 89.6016 63.0195C90.0703 63.4258 90.3828 63.8555 90.5391 64.3086C90.7031 64.7617 90.7852 65.6328 90.7852 66.9219V71.6797C90.7852 72.5859 90.9062 73.3594 91.1484 74ZM86.2969 68.4219C84.3047 68.6328 83.3086 69.2695 83.3086 70.332C83.3086 71.0508 83.7031 71.4102 84.4922 71.4102C84.9922 71.4102 85.418 71.2617 85.7695 70.9648C86.1211 70.668 86.2969 70.0117 86.2969 68.9961V68.4219ZM100.582 62.082V65.1172H98.2031V69.5117C98.2031 70.1133 98.3164 70.4727 98.543 70.5898C98.7695 70.6992 99.0039 70.7539 99.2461 70.7539C99.6211 70.7539 100.066 70.6875 100.582 70.5547V73.8828C99.6602 74.0625 98.7539 74.1523 97.8633 74.1523C96.4258 74.1523 95.3672 73.8438 94.6875 73.2266C94.0156 72.6094 93.6797 71.625 93.6797 70.2734L93.6914 68.8789V65.1172H91.9102V62.082H93.6914L93.7617 58.2031L98.2031 58.1328V62.082H100.582ZM110.027 69.7227L114.387 70.0156C114.129 71.1875 113.469 72.1875 112.406 73.0156C111.352 73.8359 109.922 74.2461 108.117 74.2461C106.109 74.2461 104.508 73.668 103.312 72.5117C102.117 71.3477 101.52 69.9062 101.52 68.1875C101.52 66.4062 102.109 64.9023 103.289 63.6758C104.469 62.4492 106.043 61.8359 108.012 61.8359C109.918 61.8359 111.457 62.4141 112.629 63.5703C113.809 64.7266 114.398 66.3008 114.398 68.293C114.398 68.457 114.395 68.6836 114.387 68.9727H106.406C106.422 69.7227 106.555 70.2812 106.805 70.6484C107.055 71.0078 107.531 71.1875 108.234 71.1875C109.25 71.1875 109.848 70.6992 110.027 69.7227ZM109.723 66.6289C109.715 65.8242 109.551 65.2852 109.23 65.0117C108.918 64.7305 108.527 64.5898 108.059 64.5898C106.949 64.5898 106.395 65.2695 106.395 66.6289H109.723ZM120.715 74H116.238V62.082H120.129V64.543C120.574 62.7539 121.609 61.8594 123.234 61.8594C123.398 61.8594 123.625 61.875 123.914 61.9062V66.0664C123.586 65.9883 123.293 65.9492 123.035 65.9492C121.488 65.9492 120.715 66.8125 120.715 68.5391V74Z" fill="white"/>
<path d="M50.2656 107.109C49.5365 107.255 48.8177 107.328 48.1094 107.328C45.0365 107.328 42.5677 106.312 40.7031 104.281C38.8385 102.25 37.9062 99.6198 37.9062 96.3906C37.9062 93.1719 38.8073 90.526 40.6094 88.4531C42.4219 86.3802 44.9323 85.3438 48.1406 85.3438C51.1094 85.3438 53.526 86.3229 55.3906 88.2812C57.2656 90.2396 58.2031 92.8542 58.2031 96.125C58.2031 100.094 56.9271 103.12 54.375 105.203C54.5833 105.818 55.2448 106.125 56.3594 106.125C56.8594 106.125 57.4479 106.057 58.125 105.922V110.75C56.9688 110.865 56.0625 110.922 55.4062 110.922C54.2396 110.922 53.1979 110.677 52.2812 110.188C51.375 109.708 50.7031 108.682 50.2656 107.109ZM48.0469 102.484C49.151 102.484 49.9427 102.005 50.4219 101.047C50.9115 100.078 51.1562 98.3125 51.1562 95.75C51.1562 92.0417 50.1615 90.1875 48.1719 90.1875C46.026 90.1875 44.9531 92.3021 44.9531 96.5312C44.9531 100.5 45.9844 102.484 48.0469 102.484ZM76.2188 91.1094V107H70.4531V104.391C69.6094 106.349 67.9635 107.328 65.5156 107.328C64.0052 107.328 62.8333 106.911 62 106.078C61.1771 105.234 60.7656 104.031 60.7656 102.469V91.1094H67V101.109C67 101.734 67.0833 102.177 67.25 102.438C67.4271 102.688 67.7656 102.812 68.2656 102.812C68.7969 102.812 69.2292 102.625 69.5625 102.25C69.8958 101.865 70.0625 101.328 70.0625 100.641V91.1094H76.2188ZM95.5312 107H89.5938C89.4479 106.323 89.375 105.583 89.375 104.781C88.25 106.479 86.5469 107.328 84.2656 107.328C82.3906 107.328 80.9844 106.849 80.0469 105.891C79.1198 104.932 78.6562 103.833 78.6562 102.594C78.6562 100.917 79.4167 99.5625 80.9375 98.5312C82.4688 97.4896 85.1771 96.8646 89.0625 96.6562V96.2969C89.0625 95.599 88.901 95.1354 88.5781 94.9062C88.2656 94.6771 87.8021 94.5625 87.1875 94.5625C85.75 94.5625 84.9479 95.1406 84.7812 96.2969L79.0938 95.7656C79.9062 92.4427 82.6719 90.7812 87.3906 90.7812C88.6719 90.7812 89.849 90.9115 90.9219 91.1719C91.9948 91.4219 92.8438 91.8177 93.4688 92.3594C94.0938 92.901 94.5104 93.474 94.7188 94.0781C94.9375 94.6823 95.0469 95.8438 95.0469 97.5625V103.906C95.0469 105.115 95.2083 106.146 95.5312 107ZM89.0625 99.5625C86.4062 99.8438 85.0781 100.693 85.0781 102.109C85.0781 103.068 85.6042 103.547 86.6562 103.547C87.3229 103.547 87.8906 103.349 88.3594 102.953C88.8281 102.557 89.0625 101.682 89.0625 100.328V99.5625ZM104.438 85.6719V107H98.2969V85.6719H104.438ZM113.969 85V89.9375H107.734V85H113.969ZM113.969 91.1094V107H107.734V91.1094H113.969ZM127.078 91.1094V95.1562H123.906V101.016C123.906 101.818 124.057 102.297 124.359 102.453C124.661 102.599 124.974 102.672 125.297 102.672C125.797 102.672 126.391 102.583 127.078 102.406V106.844C125.849 107.083 124.641 107.203 123.453 107.203C121.536 107.203 120.125 106.792 119.219 105.969C118.323 105.146 117.875 103.833 117.875 102.031L117.891 100.172V95.1562H115.516V91.1094H117.891L117.984 85.9375L123.906 85.8438V91.1094H127.078ZM144.016 91.1094L137.781 108.328C137.302 109.63 136.615 110.646 135.719 111.375C134.823 112.115 133.443 112.484 131.578 112.484C131.13 112.484 130.089 112.438 128.453 112.344V107.922C129.266 108.047 130.016 108.109 130.703 108.109C132.495 108.109 133.391 107.714 133.391 106.922C133.391 106.661 133.302 106.302 133.125 105.844L127.422 91.1094H134.094L136.719 99.5781L139.469 91.1094H144.016Z" fill="#26A3EA"/>
</svg>
